<svg width="50" height="50" viewBox="0 0 50 50" fill="none" xmlns="http://www.w3.org/2000/svg">
<g filter="url(#filter0_b_3_168)">
<rect width="50" height="50" rx="25" fill="white" fill-opacity="0.3"/>
<rect x="1.5" y="1.5" width="47" height="47" rx="23.5" stroke="white" stroke-width="3"/>
<path d="M24.9903 31.2548C26.3846 31.2548 27.554 30.7824 28.4987 29.8377C29.4435 28.893 29.9158 27.7235 29.9158 26.3293C29.9158 24.9351 29.4435 23.7689 28.4987 22.8306C27.554 21.8923 26.3846 21.4231 24.9903 21.4231C23.5961 21.4231 22.4299 21.8923 21.4916 22.8306C20.5533 23.7689 20.0841 24.9351 20.0841 26.3293C20.0841 27.7235 20.5533 28.893 21.4916 29.8377C22.4299 30.7824 23.5961 31.2548 24.9903 31.2548ZM24.9903 29.8365C23.9887 29.8365 23.157 29.5024 22.4952 28.8341C21.8333 28.1659 21.5024 27.3309 21.5024 26.3293C21.5024 25.3277 21.8333 24.496 22.4952 23.8341C23.157 23.1723 23.9887 22.8413 24.9903 22.8413C25.9919 22.8413 26.8269 23.1723 27.4952 23.8341C28.1634 24.496 28.4976 25.3277 28.4976 26.3293C28.4976 27.3309 28.1634 28.1659 27.4952 28.8341C26.8269 29.5024 25.9919 29.8365 24.9903 29.8365ZM14.9279 35.625C14.4377 35.625 14.0147 35.447 13.6588 35.0912C13.3029 34.7353 13.125 34.3123 13.125 33.8221V18.8366C13.125 18.3574 13.3029 17.9371 13.6588 17.5758C14.0147 17.2144 14.4377 17.0337 14.9279 17.0337H19.2212L21.5144 14.375H28.4855L30.7788 17.0337H35.072C35.5512 17.0337 35.9715 17.2144 36.3328 17.5758C36.6942 17.9371 36.8749 18.3574 36.8749 18.8366V33.8221C36.8749 34.3123 36.6942 34.7353 36.3328 35.0912C35.9715 35.447 35.5512 35.625 35.072 35.625H14.9279ZM35.072 34.2067C35.1842 34.2067 35.2764 34.1707 35.3485 34.0985C35.4206 34.0264 35.4567 33.9343 35.4567 33.8221V18.8366C35.4567 18.7324 35.4206 18.6422 35.3485 18.5661C35.2764 18.49 35.1842 18.4519 35.072 18.4519H30.1202L27.8269 15.7933H22.1731L19.8798 18.4519H14.9279C14.8157 18.4519 14.7236 18.49 14.6514 18.5661C14.5793 18.6422 14.5432 18.7324 14.5432 18.8366V33.8221C14.5432 33.9343 14.5793 34.0264 14.6514 34.0985C14.7236 34.1707 14.8157 34.2067 14.9279 34.2067H35.072Z" fill="#282B31"/>
</g>
<defs>
<filter id="filter0_b_3_168" x="-4" y="-4" width="58" height="58" filterUnits="userSpaceOnUse" color-interpolation-filters="sRGB">
<feFlood flood-opacity="0" result="BackgroundImageFix"/>
<feGaussianBlur in="BackgroundImageFix" stdDeviation="2"/>
<feComposite in2="SourceAlpha" operator="in" result="effect1_backgroundBlur_3_168"/>
<feBlend mode="normal" in="SourceGraphic" in2="effect1_backgroundBlur_3_168" result="shape"/>
</filter>
</defs>
</svg>
