<svg width="30" height="24" viewBox="0 0 30 24" fill="none" xmlns="http://www.w3.org/2000/svg">
<rect width="30" height="24" rx="12" fill="#61E064"/>
<path d="M22.148 8.46047L13.148 17.4605C13.0957 17.5128 13.0337 17.5543 12.9654 17.5826C12.8971 17.6109 12.8239 17.6254 12.75 17.6254C12.6761 17.6254 12.6029 17.6109 12.5346 17.5826C12.4663 17.5543 12.4043 17.5128 12.352 17.4605L8.41454 13.523C8.30899 13.4174 8.24969 13.2743 8.24969 13.125C8.24969 12.9757 8.30899 12.8326 8.41454 12.727C8.52009 12.6215 8.66324 12.5622 8.81251 12.5622C8.96177 12.5622 9.10493 12.6215 9.21048 12.727L12.75 16.2673L21.352 7.66453C21.4576 7.55898 21.6007 7.49969 21.75 7.49969C21.8993 7.49969 22.0424 7.55898 22.148 7.66453C22.2535 7.77008 22.3128 7.91323 22.3128 8.0625C22.3128 8.21177 22.2535 8.35492 22.148 8.46047Z" fill="white"/>
</svg>
