<svg width="122" height="32" viewBox="0 0 122 32" fill="none" xmlns="http://www.w3.org/2000/svg">
<rect x="0.5" y="0.5" width="121" height="31" rx="15.5" fill="white"/>
<rect x="0.5" y="0.5" width="121" height="31" rx="15.5" stroke="#808080"/>
<path d="M14.98 21V10.92H18.088C18.1907 10.92 18.3703 10.9223 18.627 10.927C18.8837 10.9317 19.1287 10.9503 19.362 10.983C20.1413 11.0857 20.7923 11.3703 21.315 11.837C21.8423 12.299 22.239 12.887 22.505 13.601C22.771 14.315 22.904 15.1013 22.904 15.96C22.904 16.8187 22.771 17.605 22.505 18.319C22.239 19.033 21.8423 19.6233 21.315 20.09C20.7923 20.552 20.1413 20.8343 19.362 20.937C19.1287 20.965 18.8813 20.9837 18.62 20.993C18.3633 20.9977 18.186 21 18.088 21H14.98ZM16.261 19.81H18.088C18.2653 19.81 18.4637 19.8053 18.683 19.796C18.9023 19.782 19.0937 19.761 19.257 19.733C19.8077 19.6303 20.2533 19.3993 20.594 19.04C20.9347 18.6807 21.1843 18.2327 21.343 17.696C21.5017 17.1593 21.581 16.5807 21.581 15.96C21.581 15.3253 21.4993 14.7397 21.336 14.203C21.1773 13.6663 20.9277 13.2207 20.587 12.866C20.2463 12.5113 19.803 12.285 19.257 12.187C19.0937 12.1543 18.9 12.1333 18.676 12.124C18.452 12.1147 18.256 12.11 18.088 12.11H16.261V19.81ZM27.7853 21.21C27.0433 21.21 26.3946 21.0467 25.8393 20.72C25.2886 20.3887 24.8593 19.929 24.5513 19.341C24.2433 18.7483 24.0893 18.0577 24.0893 17.269C24.0893 16.443 24.241 15.729 24.5443 15.127C24.8476 14.5203 25.27 14.0537 25.8113 13.727C26.3573 13.3957 26.9966 13.23 27.7293 13.23C28.49 13.23 29.1363 13.405 29.6683 13.755C30.205 14.105 30.6063 14.6043 30.8723 15.253C31.143 15.9017 31.2596 16.674 31.2223 17.57H29.9623V17.122C29.9483 16.1933 29.7593 15.5003 29.3953 15.043C29.0313 14.581 28.49 14.35 27.7713 14.35C27.0013 14.35 26.4156 14.5973 26.0143 15.092C25.613 15.5867 25.4123 16.296 25.4123 17.22C25.4123 18.1113 25.613 18.802 26.0143 19.292C26.4156 19.782 26.9873 20.027 27.7293 20.027C28.2286 20.027 28.6626 19.9127 29.0313 19.684C29.4 19.4553 29.6893 19.1263 29.8993 18.697L31.0963 19.11C30.8023 19.7773 30.359 20.2953 29.7663 20.664C29.1783 21.028 28.518 21.21 27.7853 21.21ZM24.9923 17.57V16.569H30.5783V17.57H24.9923ZM32.9208 21V10.71H34.1668V21H32.9208ZM39.5431 21.21C38.8011 21.21 38.1524 21.0467 37.5971 20.72C37.0464 20.3887 36.6171 19.929 36.3091 19.341C36.0011 18.7483 35.8471 18.0577 35.8471 17.269C35.8471 16.443 35.9988 15.729 36.3021 15.127C36.6054 14.5203 37.0278 14.0537 37.5691 13.727C38.1151 13.3957 38.7544 13.23 39.4871 13.23C40.2478 13.23 40.8941 13.405 41.4261 13.755C41.9628 14.105 42.3641 14.6043 42.6301 15.253C42.9008 15.9017 43.0174 16.674 42.9801 17.57H41.7201V17.122C41.7061 16.1933 41.5171 15.5003 41.1531 15.043C40.7891 14.581 40.2478 14.35 39.5291 14.35C38.7591 14.35 38.1734 14.5973 37.7721 15.092C37.3708 15.5867 37.1701 16.296 37.1701 17.22C37.1701 18.1113 37.3708 18.802 37.7721 19.292C38.1734 19.782 38.7451 20.027 39.4871 20.027C39.9864 20.027 40.4204 19.9127 40.7891 19.684C41.1578 19.4553 41.4471 19.1263 41.6571 18.697L42.8541 19.11C42.5601 19.7773 42.1168 20.2953 41.5241 20.664C40.9361 21.028 40.2758 21.21 39.5431 21.21ZM36.7501 17.57V16.569H42.3361V17.57H36.7501ZM48.7596 21C48.3116 21.0887 47.8683 21.1237 47.4296 21.105C46.9956 21.091 46.6083 21.0047 46.2676 20.846C45.9269 20.6827 45.6679 20.4307 45.4906 20.09C45.3413 19.7913 45.2596 19.4903 45.2456 19.187C45.2363 18.879 45.2316 18.5313 45.2316 18.144V11.34H46.4776V18.088C46.4776 18.396 46.4799 18.6597 46.4846 18.879C46.4939 19.0983 46.5429 19.2873 46.6316 19.446C46.7996 19.7447 47.0656 19.9197 47.4296 19.971C47.7983 20.0223 48.2416 20.0083 48.7596 19.929V21ZM43.6986 14.469V13.44H48.7596V14.469H43.6986ZM53.256 21.21C52.514 21.21 51.8653 21.0467 51.31 20.72C50.7593 20.3887 50.33 19.929 50.022 19.341C49.714 18.7483 49.56 18.0577 49.56 17.269C49.56 16.443 49.7117 15.729 50.015 15.127C50.3183 14.5203 50.7407 14.0537 51.282 13.727C51.828 13.3957 52.4673 13.23 53.2 13.23C53.9607 13.23 54.607 13.405 55.139 13.755C55.6757 14.105 56.077 14.6043 56.343 15.253C56.6137 15.9017 56.7303 16.674 56.693 17.57H55.433V17.122C55.419 16.1933 55.23 15.5003 54.866 15.043C54.502 14.581 53.9607 14.35 53.242 14.35C52.472 14.35 51.8863 14.5973 51.485 15.092C51.0837 15.5867 50.883 16.296 50.883 17.22C50.883 18.1113 51.0837 18.802 51.485 19.292C51.8863 19.782 52.458 20.027 53.2 20.027C53.6993 20.027 54.1333 19.9127 54.502 19.684C54.8707 19.4553 55.16 19.1263 55.37 18.697L56.567 19.11C56.273 19.7773 55.8297 20.2953 55.237 20.664C54.649 21.028 53.9887 21.21 53.256 21.21ZM50.463 17.57V16.569H56.049V17.57H50.463ZM63.6512 21V12.103H60.2142V10.92H68.3342V12.103H64.8972V21H63.6512ZM70.6134 21.21C70.0487 21.21 69.575 21.1073 69.1924 20.902C68.8144 20.692 68.5274 20.4167 68.3314 20.076C68.14 19.7353 68.0444 19.362 68.0444 18.956C68.0444 18.5593 68.119 18.2163 68.2684 17.927C68.4224 17.633 68.637 17.3903 68.9124 17.199C69.1877 17.003 69.5167 16.849 69.8994 16.737C70.2587 16.639 70.66 16.555 71.1034 16.485C71.5514 16.4103 72.004 16.3427 72.4614 16.282C72.9187 16.2213 73.3457 16.163 73.7424 16.107L73.2944 16.366C73.3084 15.694 73.173 15.197 72.8884 14.875C72.6084 14.553 72.123 14.392 71.4324 14.392C70.975 14.392 70.5737 14.497 70.2284 14.707C69.8877 14.9123 69.6474 15.2483 69.5074 15.715L68.3244 15.358C68.5064 14.6953 68.8587 14.175 69.3814 13.797C69.904 13.419 70.5924 13.23 71.4464 13.23C72.1324 13.23 72.7204 13.3537 73.2104 13.601C73.705 13.8437 74.0597 14.2123 74.2744 14.707C74.3817 14.9403 74.4494 15.1947 74.4774 15.47C74.5054 15.7407 74.5194 16.0253 74.5194 16.324V21H73.4134V19.187L73.6724 19.355C73.3877 19.9663 72.9887 20.4283 72.4754 20.741C71.9667 21.0537 71.346 21.21 70.6134 21.21ZM70.8024 20.167C71.2504 20.167 71.6377 20.0877 71.9644 19.929C72.2957 19.7657 72.5617 19.5533 72.7624 19.292C72.963 19.026 73.0937 18.7367 73.1544 18.424C73.2244 18.1907 73.2617 17.9317 73.2664 17.647C73.2757 17.3577 73.2804 17.136 73.2804 16.982L73.7144 17.171C73.3084 17.227 72.9094 17.2807 72.5174 17.332C72.1254 17.3833 71.7544 17.4393 71.4044 17.5C71.0544 17.556 70.7394 17.6237 70.4594 17.703C70.254 17.7683 70.0604 17.8523 69.8784 17.955C69.701 18.0577 69.5564 18.1907 69.4444 18.354C69.337 18.5127 69.2834 18.711 69.2834 18.949C69.2834 19.1543 69.3347 19.3503 69.4374 19.537C69.5447 19.7237 69.708 19.8753 69.9274 19.992C70.1514 20.1087 70.443 20.167 70.8024 20.167ZM79.1954 21.203C78.2947 21.203 77.555 21.007 76.9764 20.615C76.4024 20.2183 76.05 19.6653 75.9194 18.956L77.1934 18.753C77.296 19.1637 77.5317 19.4903 77.9004 19.733C78.269 19.971 78.7264 20.09 79.2724 20.09C79.7904 20.09 80.1964 19.9827 80.4904 19.768C80.7844 19.5533 80.9314 19.2617 80.9314 18.893C80.9314 18.6783 80.8824 18.5057 80.7844 18.375C80.6864 18.2397 80.4834 18.1137 80.1754 17.997C79.872 17.8803 79.4124 17.7403 78.7964 17.577C78.129 17.3997 77.604 17.2153 77.2214 17.024C76.8387 16.8327 76.5657 16.611 76.4024 16.359C76.239 16.107 76.1574 15.8013 76.1574 15.442C76.1574 14.9987 76.2787 14.6113 76.5214 14.28C76.764 13.944 77.1024 13.685 77.5364 13.503C77.975 13.321 78.4837 13.23 79.0624 13.23C79.6364 13.23 80.1497 13.321 80.6024 13.503C81.055 13.685 81.419 13.944 81.6944 14.28C81.9744 14.6113 82.14 14.9987 82.1914 15.442L80.9174 15.673C80.8567 15.267 80.6607 14.9473 80.3294 14.714C80.0027 14.4807 79.5804 14.357 79.0624 14.343C78.5724 14.3243 78.1734 14.4107 77.8654 14.602C77.562 14.7933 77.4104 15.0523 77.4104 15.379C77.4104 15.561 77.4664 15.7173 77.5784 15.848C77.695 15.9787 77.9074 16.1023 78.2154 16.219C78.528 16.3357 78.9807 16.4687 79.5734 16.618C80.2407 16.786 80.7657 16.9703 81.1484 17.171C81.5357 17.367 81.811 17.6003 81.9744 17.871C82.1377 18.137 82.2194 18.466 82.2194 18.858C82.2194 19.586 81.951 20.16 81.4144 20.58C80.8777 20.9953 80.138 21.203 79.1954 21.203ZM83.7562 21L83.7632 10.92H85.0232V17.08L88.1942 13.44H89.8112L86.4722 17.22L90.2032 21H88.4602L85.0232 17.36V21H83.7562Z" fill="#808080"/>
<path d="M109.5 11H107V10.5C107 10.1022 106.842 9.72064 106.561 9.43934C106.279 9.15804 105.898 9 105.5 9H102.5C102.102 9 101.721 9.15804 101.439 9.43934C101.158 9.72064 101 10.1022 101 10.5V11H98.5C98.3674 11 98.2402 11.0527 98.1464 11.1464C98.0527 11.2402 98 11.3674 98 11.5C98 11.6326 98.0527 11.7598 98.1464 11.8536C98.2402 11.9473 98.3674 12 98.5 12H99V21C99 21.2652 99.1054 21.5196 99.2929 21.7071C99.4804 21.8946 99.7348 22 100 22H108C108.265 22 108.52 21.8946 108.707 21.7071C108.895 21.5196 109 21.2652 109 21V12H109.5C109.633 12 109.76 11.9473 109.854 11.8536C109.947 11.7598 110 11.6326 110 11.5C110 11.3674 109.947 11.2402 109.854 11.1464C109.76 11.0527 109.633 11 109.5 11ZM102 10.5C102 10.3674 102.053 10.2402 102.146 10.1464C102.24 10.0527 102.367 10 102.5 10H105.5C105.633 10 105.76 10.0527 105.854 10.1464C105.947 10.2402 106 10.3674 106 10.5V11H102V10.5ZM108 21H100V12H108V21ZM103 14.5V18.5C103 18.6326 102.947 18.7598 102.854 18.8536C102.76 18.9473 102.633 19 102.5 19C102.367 19 102.24 18.9473 102.146 18.8536C102.053 18.7598 102 18.6326 102 18.5V14.5C102 14.3674 102.053 14.2402 102.146 14.1464C102.24 14.0527 102.367 14 102.5 14C102.633 14 102.76 14.0527 102.854 14.1464C102.947 14.2402 103 14.3674 103 14.5ZM106 14.5V18.5C106 18.6326 105.947 18.7598 105.854 18.8536C105.76 18.9473 105.633 19 105.5 19C105.367 19 105.24 18.9473 105.146 18.8536C105.053 18.7598 105 18.6326 105 18.5V14.5C105 14.3674 105.053 14.2402 105.146 14.1464C105.24 14.0527 105.367 14 105.5 14C105.633 14 105.76 14.0527 105.854 14.1464C105.947 14.2402 106 14.3674 106 14.5Z" fill="#808080"/>
</svg>
