<svg width="47" height="16" viewBox="0 0 47 16" fill="none" xmlns="http://www.w3.org/2000/svg">
<rect width="47" height="16" rx="8" fill="#EFFFEF"/>
<path d="M7.99831 11.12C7.42498 11.12 6.93831 10.9933 6.53831 10.74C6.13831 10.4867 5.83298 10.1347 5.62231 9.684C5.41431 9.23333 5.31031 8.712 5.31031 8.12C5.31031 7.528 5.41431 7.00667 5.62231 6.556C5.83298 6.10533 6.13831 5.75333 6.53831 5.5C6.93831 5.24667 7.42498 5.12 7.99831 5.12C8.66498 5.12 9.21298 5.28933 9.64231 5.628C10.0743 5.96667 10.3716 6.42267 10.5343 6.996L9.81031 7.188C9.69298 6.75867 9.48365 6.42 9.18231 6.172C8.88098 5.924 8.48631 5.8 7.99831 5.8C7.56898 5.8 7.21165 5.89733 6.92631 6.092C6.64098 6.28667 6.42631 6.55867 6.28231 6.908C6.13831 7.25467 6.06498 7.65867 6.06231 8.12C6.05965 8.57867 6.13031 8.98267 6.27431 9.332C6.41831 9.67867 6.63431 9.95067 6.92231 10.148C7.21031 10.3427 7.56898 10.44 7.99831 10.44C8.48631 10.44 8.88098 10.316 9.18231 10.068C9.48365 9.81733 9.69298 9.47867 9.81031 9.052L10.5343 9.244C10.3716 9.81467 10.0743 10.2707 9.64231 10.612C9.21298 10.9507 8.66498 11.12 7.99831 11.12ZM13.2516 11.12C12.8222 11.12 12.4516 11.0227 12.1396 10.828C11.8302 10.6333 11.5916 10.364 11.4236 10.02C11.2556 9.676 11.1716 9.28133 11.1716 8.836C11.1716 8.38267 11.2569 7.98533 11.4276 7.644C11.5982 7.30267 11.8396 7.03733 12.1516 6.848C12.4636 6.656 12.8302 6.56 13.2516 6.56C13.6836 6.56 14.0556 6.65733 14.3676 6.852C14.6796 7.044 14.9182 7.312 15.0836 7.656C15.2516 7.99733 15.3356 8.39067 15.3356 8.836C15.3356 9.28667 15.2516 9.684 15.0836 10.028C14.9156 10.3693 14.6756 10.6373 14.3636 10.832C14.0516 11.024 13.6809 11.12 13.2516 11.12ZM13.2516 10.444C13.6996 10.444 14.0329 10.2947 14.2516 9.996C14.4702 9.69733 14.5796 9.31067 14.5796 8.836C14.5796 8.348 14.4689 7.96 14.2476 7.672C14.0262 7.38133 13.6942 7.236 13.2516 7.236C12.9502 7.236 12.7022 7.304 12.5076 7.44C12.3129 7.576 12.1676 7.764 12.0716 8.004C11.9756 8.244 11.9276 8.52133 11.9276 8.836C11.9276 9.32133 12.0396 9.71067 12.2636 10.004C12.4876 10.2973 12.8169 10.444 13.2516 10.444ZM21.3803 11L21.3843 8.236C21.3843 7.91333 21.2976 7.66133 21.1243 7.48C20.9536 7.296 20.7309 7.204 20.4563 7.204C20.2963 7.204 20.1443 7.24133 20.0003 7.316C19.8563 7.388 19.7389 7.50267 19.6483 7.66C19.5576 7.81467 19.5123 8.01333 19.5123 8.256L19.1363 8.104C19.1309 7.79733 19.1936 7.52933 19.3243 7.3C19.4576 7.068 19.6389 6.888 19.8683 6.76C20.0976 6.632 20.3563 6.568 20.6443 6.568C21.0949 6.568 21.4496 6.70533 21.7083 6.98C21.9669 7.252 22.0963 7.61867 22.0963 8.08L22.0923 11H21.3803ZM16.2123 11V6.68H16.8483V7.836H16.9283V11H16.2123ZM18.8003 11L18.8043 8.264C18.8043 7.93333 18.7189 7.67467 18.5483 7.488C18.3776 7.29867 18.1509 7.204 17.8683 7.204C17.5883 7.204 17.3616 7.3 17.1883 7.492C17.0149 7.684 16.9283 7.93867 16.9283 8.256L16.5523 8.032C16.5523 7.752 16.6189 7.50133 16.7523 7.28C16.8856 7.05867 17.0669 6.88533 17.2963 6.76C17.5256 6.632 17.7856 6.568 18.0763 6.568C18.3669 6.568 18.6203 6.62933 18.8363 6.752C19.0523 6.87467 19.2189 7.05067 19.3363 7.28C19.4536 7.50667 19.5123 7.77733 19.5123 8.092L19.5083 11H18.8003ZM25.1221 11.12C24.7168 11.12 24.3755 11.02 24.0981 10.82C23.8208 10.6173 23.6101 10.344 23.4661 10C23.3248 9.65333 23.2541 9.26533 23.2541 8.836C23.2541 8.40133 23.3248 8.012 23.4661 7.668C23.6101 7.324 23.8208 7.05333 24.0981 6.856C24.3781 6.65867 24.7208 6.56 25.1261 6.56C25.5261 6.56 25.8701 6.66 26.1581 6.86C26.4488 7.05733 26.6715 7.328 26.8261 7.672C26.9808 8.016 27.0581 8.404 27.0581 8.836C27.0581 9.268 26.9808 9.656 26.8261 10C26.6715 10.344 26.4488 10.6173 26.1581 10.82C25.8701 11.02 25.5248 11.12 25.1221 11.12ZM23.1341 12.92V6.68H23.7701V9.86H23.8501V12.92H23.1341ZM25.0341 10.468C25.3195 10.468 25.5555 10.396 25.7421 10.252C25.9288 10.108 26.0688 9.91333 26.1621 9.668C26.2555 9.42 26.3021 9.14267 26.3021 8.836C26.3021 8.532 26.2555 8.25733 26.1621 8.012C26.0715 7.76667 25.9301 7.572 25.7381 7.428C25.5488 7.284 25.3075 7.212 25.0141 7.212C24.7341 7.212 24.5021 7.28133 24.3181 7.42C24.1341 7.556 23.9968 7.74667 23.9061 7.992C23.8155 8.23467 23.7701 8.516 23.7701 8.836C23.7701 9.15067 23.8141 9.432 23.9021 9.68C23.9928 9.92533 24.1315 10.1187 24.3181 10.26C24.5048 10.3987 24.7435 10.468 25.0341 10.468ZM28.015 11V5.12H28.727V11H28.015ZM31.7992 11.12C31.3752 11.12 31.0045 11.0267 30.6872 10.84C30.3725 10.6507 30.1272 10.388 29.9512 10.052C29.7752 9.71333 29.6872 9.31867 29.6872 8.868C29.6872 8.396 29.7739 7.988 29.9472 7.644C30.1205 7.29733 30.3619 7.03067 30.6712 6.844C30.9832 6.65467 31.3485 6.56 31.7672 6.56C32.2019 6.56 32.5712 6.66 32.8752 6.86C33.1819 7.06 33.4112 7.34533 33.5632 7.716C33.7179 8.08667 33.7845 8.528 33.7632 9.04H33.0432V8.784C33.0352 8.25333 32.9272 7.85733 32.7192 7.596C32.5112 7.332 32.2019 7.2 31.7912 7.2C31.3512 7.2 31.0165 7.34133 30.7872 7.624C30.5579 7.90667 30.4432 8.312 30.4432 8.84C30.4432 9.34933 30.5579 9.744 30.7872 10.024C31.0165 10.304 31.3432 10.444 31.7672 10.444C32.0525 10.444 32.3005 10.3787 32.5112 10.248C32.7219 10.1173 32.8872 9.92933 33.0072 9.684L33.6912 9.92C33.5232 10.3013 33.2699 10.5973 32.9312 10.808C32.5952 11.016 32.2179 11.12 31.7992 11.12ZM30.2032 9.04V8.468H33.3952V9.04H30.2032ZM37.0658 11C36.8098 11.0507 36.5564 11.0707 36.3058 11.06C36.0578 11.052 35.8364 11.0027 35.6418 10.912C35.4471 10.8187 35.2991 10.6747 35.1978 10.48C35.1124 10.3093 35.0658 10.1373 35.0578 9.964C35.0524 9.788 35.0498 9.58933 35.0498 9.368V5.48H35.7618V9.336C35.7618 9.512 35.7631 9.66267 35.7658 9.788C35.7711 9.91333 35.7991 10.0213 35.8498 10.112C35.9458 10.2827 36.0978 10.3827 36.3058 10.412C36.5164 10.4413 36.7698 10.4333 37.0658 10.388V11ZM34.1738 7.268V6.68H37.0658V7.268H34.1738ZM39.6351 11.12C39.2111 11.12 38.8405 11.0267 38.5231 10.84C38.2085 10.6507 37.9631 10.388 37.7871 10.052C37.6111 9.71333 37.5231 9.31867 37.5231 8.868C37.5231 8.396 37.6098 7.988 37.7831 7.644C37.9565 7.29733 38.1978 7.03067 38.5071 6.844C38.8191 6.65467 39.1845 6.56 39.6031 6.56C40.0378 6.56 40.4071 6.66 40.7111 6.86C41.0178 7.06 41.2471 7.34533 41.3991 7.716C41.5538 8.08667 41.6205 8.528 41.5991 9.04H40.8791V8.784C40.8711 8.25333 40.7631 7.85733 40.5551 7.596C40.3471 7.332 40.0378 7.2 39.6271 7.2C39.1871 7.2 38.8525 7.34133 38.6231 7.624C38.3938 7.90667 38.2791 8.312 38.2791 8.84C38.2791 9.34933 38.3938 9.744 38.6231 10.024C38.8525 10.304 39.1791 10.444 39.6031 10.444C39.8885 10.444 40.1365 10.3787 40.3471 10.248C40.5578 10.1173 40.7231 9.92933 40.8431 9.684L41.5271 9.92C41.3591 10.3013 41.1058 10.5973 40.7671 10.808C40.4311 11.016 40.0538 11.12 39.6351 11.12ZM38.0391 9.04V8.468H41.2311V9.04H38.0391Z" fill="#61E064"/>
</svg>
