<svg width="53" height="16" viewBox="0 0 53 16" fill="none" xmlns="http://www.w3.org/2000/svg">
<rect width="53" height="16" rx="8" fill="#FFFAEC"/>
<path d="M6.02281 11V5.24H6.73481V11H6.02281ZM11.011 11V8.836C11.011 8.63067 10.9923 8.43333 10.955 8.244C10.9203 8.05467 10.8577 7.88533 10.767 7.736C10.679 7.584 10.559 7.464 10.407 7.376C10.2577 7.288 10.0683 7.244 9.839 7.244C9.66033 7.244 9.49767 7.27467 9.351 7.336C9.207 7.39467 9.083 7.48533 8.979 7.608C8.875 7.73067 8.79367 7.88533 8.735 8.072C8.679 8.256 8.651 8.47333 8.651 8.724L8.183 8.58C8.183 8.16133 8.25767 7.80267 8.407 7.504C8.559 7.20267 8.771 6.972 9.043 6.812C9.31767 6.64933 9.64033 6.568 10.011 6.568C10.291 6.568 10.5297 6.612 10.727 6.7C10.9243 6.788 11.0883 6.90533 11.219 7.052C11.3497 7.196 11.4523 7.35867 11.527 7.54C11.6017 7.71867 11.6537 7.90133 11.683 8.088C11.715 8.272 11.731 8.44667 11.731 8.612V11H11.011ZM7.931 11V6.68H8.571V7.836H8.651V11H7.931ZM14.5519 11.12C14.1145 11.12 13.7425 11.0227 13.4359 10.828C13.1319 10.6307 12.8999 10.36 12.7399 10.016C12.5799 9.672 12.4972 9.28 12.4919 8.84C12.4972 8.38933 12.5812 7.99333 12.7439 7.652C12.9092 7.308 13.1452 7.04 13.4519 6.848C13.7585 6.656 14.1279 6.56 14.5599 6.56C15.0159 6.56 15.4079 6.672 15.7359 6.896C16.0665 7.12 16.2879 7.42667 16.3999 7.816L15.6959 8.028C15.6052 7.77733 15.4572 7.58267 15.2519 7.444C15.0492 7.30533 14.8159 7.236 14.5519 7.236C14.2559 7.236 14.0119 7.30533 13.8199 7.444C13.6279 7.58 13.4852 7.76933 13.3919 8.012C13.2985 8.252 13.2505 8.528 13.2479 8.84C13.2532 9.32 13.3639 9.708 13.5799 10.004C13.7985 10.2973 14.1225 10.444 14.5519 10.444C14.8345 10.444 15.0692 10.38 15.2559 10.252C15.4425 10.1213 15.5839 9.93333 15.6799 9.688L16.3999 9.876C16.2505 10.2787 16.0172 10.5867 15.6999 10.8C15.3825 11.0133 14.9999 11.12 14.5519 11.12ZM18.9391 11.12C18.5097 11.12 18.1391 11.0227 17.8271 10.828C17.5177 10.6333 17.2791 10.364 17.1111 10.02C16.9431 9.676 16.8591 9.28133 16.8591 8.836C16.8591 8.38267 16.9444 7.98533 17.1151 7.644C17.2857 7.30267 17.5271 7.03733 17.8391 6.848C18.1511 6.656 18.5177 6.56 18.9391 6.56C19.3711 6.56 19.7431 6.65733 20.0551 6.852C20.3671 7.044 20.6057 7.312 20.7711 7.656C20.9391 7.99733 21.0231 8.39067 21.0231 8.836C21.0231 9.28667 20.9391 9.684 20.7711 10.028C20.6031 10.3693 20.3631 10.6373 20.0511 10.832C19.7391 11.024 19.3684 11.12 18.9391 11.12ZM18.9391 10.444C19.3871 10.444 19.7204 10.2947 19.9391 9.996C20.1577 9.69733 20.2671 9.31067 20.2671 8.836C20.2671 8.348 20.1564 7.96 19.9351 7.672C19.7137 7.38133 19.3817 7.236 18.9391 7.236C18.6377 7.236 18.3897 7.304 18.1951 7.44C18.0004 7.576 17.8551 7.764 17.7591 8.004C17.6631 8.244 17.6151 8.52133 17.6151 8.836C17.6151 9.32133 17.7271 9.71067 17.9511 10.004C18.1751 10.2973 18.5044 10.444 18.9391 10.444ZM27.0678 11L27.0718 8.236C27.0718 7.91333 26.9851 7.66133 26.8118 7.48C26.6411 7.296 26.4184 7.204 26.1438 7.204C25.9838 7.204 25.8318 7.24133 25.6878 7.316C25.5438 7.388 25.4264 7.50267 25.3358 7.66C25.2451 7.81467 25.1998 8.01333 25.1998 8.256L24.8238 8.104C24.8184 7.79733 24.8811 7.52933 25.0118 7.3C25.1451 7.068 25.3264 6.888 25.5558 6.76C25.7851 6.632 26.0438 6.568 26.3318 6.568C26.7824 6.568 27.1371 6.70533 27.3958 6.98C27.6544 7.252 27.7838 7.61867 27.7838 8.08L27.7798 11H27.0678ZM21.8998 11V6.68H22.5358V7.836H22.6158V11H21.8998ZM24.4878 11L24.4918 8.264C24.4918 7.93333 24.4064 7.67467 24.2358 7.488C24.0651 7.29867 23.8384 7.204 23.5558 7.204C23.2758 7.204 23.0491 7.3 22.8758 7.492C22.7024 7.684 22.6158 7.93867 22.6158 8.256L22.2398 8.032C22.2398 7.752 22.3064 7.50133 22.4398 7.28C22.5731 7.05867 22.7544 6.88533 22.9838 6.76C23.2131 6.632 23.4731 6.568 23.7638 6.568C24.0544 6.568 24.3078 6.62933 24.5238 6.752C24.7398 6.87467 24.9064 7.05067 25.0238 7.28C25.1411 7.50667 25.1998 7.77733 25.1998 8.092L25.1958 11H24.4878ZM30.8096 11.12C30.4043 11.12 30.063 11.02 29.7856 10.82C29.5083 10.6173 29.2976 10.344 29.1536 10C29.0123 9.65333 28.9416 9.26533 28.9416 8.836C28.9416 8.40133 29.0123 8.012 29.1536 7.668C29.2976 7.324 29.5083 7.05333 29.7856 6.856C30.0656 6.65867 30.4083 6.56 30.8136 6.56C31.2136 6.56 31.5576 6.66 31.8456 6.86C32.1363 7.05733 32.359 7.328 32.5136 7.672C32.6683 8.016 32.7456 8.404 32.7456 8.836C32.7456 9.268 32.6683 9.656 32.5136 10C32.359 10.344 32.1363 10.6173 31.8456 10.82C31.5576 11.02 31.2123 11.12 30.8096 11.12ZM28.8216 12.92V6.68H29.4576V9.86H29.5376V12.92H28.8216ZM30.7216 10.468C31.007 10.468 31.243 10.396 31.4296 10.252C31.6163 10.108 31.7563 9.91333 31.8496 9.668C31.943 9.42 31.9896 9.14267 31.9896 8.836C31.9896 8.532 31.943 8.25733 31.8496 8.012C31.759 7.76667 31.6176 7.572 31.4256 7.428C31.2363 7.284 30.995 7.212 30.7016 7.212C30.4216 7.212 30.1896 7.28133 30.0056 7.42C29.8216 7.556 29.6843 7.74667 29.5936 7.992C29.503 8.23467 29.4576 8.516 29.4576 8.836C29.4576 9.15067 29.5016 9.432 29.5896 9.68C29.6803 9.92533 29.819 10.1187 30.0056 10.26C30.1923 10.3987 30.431 10.468 30.7216 10.468ZM33.7025 11V5.12H34.4145V11H33.7025ZM37.4867 11.12C37.0627 11.12 36.692 11.0267 36.3747 10.84C36.06 10.6507 35.8147 10.388 35.6387 10.052C35.4627 9.71333 35.3747 9.31867 35.3747 8.868C35.3747 8.396 35.4614 7.988 35.6347 7.644C35.808 7.29733 36.0494 7.03067 36.3587 6.844C36.6707 6.65467 37.036 6.56 37.4547 6.56C37.8894 6.56 38.2587 6.66 38.5627 6.86C38.8694 7.06 39.0987 7.34533 39.2507 7.716C39.4054 8.08667 39.472 8.528 39.4507 9.04H38.7307V8.784C38.7227 8.25333 38.6147 7.85733 38.4067 7.596C38.1987 7.332 37.8894 7.2 37.4787 7.2C37.0387 7.2 36.704 7.34133 36.4747 7.624C36.2454 7.90667 36.1307 8.312 36.1307 8.84C36.1307 9.34933 36.2454 9.744 36.4747 10.024C36.704 10.304 37.0307 10.444 37.4547 10.444C37.74 10.444 37.988 10.3787 38.1987 10.248C38.4094 10.1173 38.5747 9.92933 38.6947 9.684L39.3787 9.92C39.2107 10.3013 38.9574 10.5973 38.6187 10.808C38.2827 11.016 37.9054 11.12 37.4867 11.12ZM35.8907 9.04V8.468H39.0827V9.04H35.8907ZM42.7533 11C42.4973 11.0507 42.2439 11.0707 41.9933 11.06C41.7453 11.052 41.5239 11.0027 41.3293 10.912C41.1346 10.8187 40.9866 10.6747 40.8853 10.48C40.7999 10.3093 40.7533 10.1373 40.7453 9.964C40.7399 9.788 40.7373 9.58933 40.7373 9.368V5.48H41.4493V9.336C41.4493 9.512 41.4506 9.66267 41.4533 9.788C41.4586 9.91333 41.4866 10.0213 41.5373 10.112C41.6333 10.2827 41.7853 10.3827 41.9933 10.412C42.2039 10.4413 42.4573 10.4333 42.7533 10.388V11ZM39.8613 7.268V6.68H42.7533V7.268H39.8613ZM45.3226 11.12C44.8986 11.12 44.528 11.0267 44.2106 10.84C43.896 10.6507 43.6506 10.388 43.4746 10.052C43.2986 9.71333 43.2106 9.31867 43.2106 8.868C43.2106 8.396 43.2973 7.988 43.4706 7.644C43.644 7.29733 43.8853 7.03067 44.1946 6.844C44.5066 6.65467 44.872 6.56 45.2906 6.56C45.7253 6.56 46.0946 6.66 46.3986 6.86C46.7053 7.06 46.9346 7.34533 47.0866 7.716C47.2413 8.08667 47.308 8.528 47.2866 9.04H46.5666V8.784C46.5586 8.25333 46.4506 7.85733 46.2426 7.596C46.0346 7.332 45.7253 7.2 45.3146 7.2C44.8746 7.2 44.54 7.34133 44.3106 7.624C44.0813 7.90667 43.9666 8.312 43.9666 8.84C43.9666 9.34933 44.0813 9.744 44.3106 10.024C44.54 10.304 44.8666 10.444 45.2906 10.444C45.576 10.444 45.824 10.3787 46.0346 10.248C46.2453 10.1173 46.4106 9.92933 46.5306 9.684L47.2146 9.92C47.0466 10.3013 46.7933 10.5973 46.4546 10.808C46.1186 11.016 45.7413 11.12 45.3226 11.12ZM43.7266 9.04V8.468H46.9186V9.04H43.7266Z" fill="#FBBC04"/>
</svg>
